<?xml version="1.0" standalone="no"?>
<!DOCTYPE svg PUBLIC "-//W3C//DTD SVG 20010904//EN"
 "http://www.w3.org/TR/2001/REC-SVG-20010904/DTD/svg10.dtd">
<svg version="1.0" xmlns="http://www.w3.org/2000/svg"
 width="500.000000pt" height="500.000000pt" viewBox="0 0 500.000000 500.000000"
 preserveAspectRatio="xMidYMid meet">

<g transform="translate(0.000000,500.000000) scale(0.100000,-0.100000)"
fill="#000000" stroke="none">
<path d="M0 2500 l0 -2500 2500 0 2500 0 0 2500 0 2500 -2500 0 -2500 0 0
-2500z m2800 1601 c184 -43 355 -116 509 -218 112 -74 308 -270 383 -383 232
-352 304 -761 202 -1165 -40 -160 -142 -384 -205 -449 -36 -38 -27 -10 27 79
473 787 74 1815 -809 2085 -141 43 -227 54 -407 54 -253 0 -399 -33 -627 -144
-524 -255 -845 -830 -784 -1405 22 -209 93 -423 196 -592 29 -49 51 -90 49
-92 -16 -16 -115 148 -168 279 -180 442 -127 943 142 1350 75 113 271 309 383
383 159 105 354 187 527 221 122 24 128 24 317 21 135 -3 201 -9 265 -24z
m-394 -278 c-13 -24 -15 -25 -16 -7 0 11 5 25 12 32 19 19 21 6 4 -25z m94
-18 c-7 -9 -15 -13 -18 -10 -3 2 1 11 8 20 7 9 15 13 18 10 3 -2 -1 -11 -8
-20z m35 -55 c13 -6 15 -9 5 -9 -8 0 -22 4 -30 9 -18 12 -2 12 25 0z m-75 -41
c0 -6 -4 -7 -10 -4 -5 3 -10 11 -10 16 0 6 5 7 10 4 6 -3 10 -11 10 -16z m59
-46 c12 -14 19 -28 16 -31 -3 -3 -6 -3 -7 -1 -2 2 -14 16 -27 32 -14 15 -20
27 -13 27 6 0 20 -12 31 -27z m116 -3 c8 -16 15 -39 15 -52 -1 -15 -7 -7 -20
27 -22 55 -22 55 -15 55 2 0 11 -13 20 -30z m-84 -67 c-12 -20 -14 -14 -5 12
4 9 9 14 11 11 3 -2 0 -13 -6 -23z m119 -40 c-11 -17 -11 -17 -6 0 3 10 7 26
7 35 1 15 2 15 6 0 2 -10 -1 -25 -7 -35z m-225 -19 c-8 -16 -15 -24 -15 -17 0
18 24 67 27 56 2 -5 -3 -23 -12 -39z m125 15 c-12 -16 -25 -28 -28 -25 -5 6
36 56 45 56 3 0 -5 -14 -17 -31z m-160 -30 c0 -6 -4 -7 -10 -4 -5 3 -10 11
-10 16 0 6 5 7 10 4 6 -3 10 -11 10 -16z m103 -23 c-3 -18 0 -44 8 -57 11 -22
11 -23 -4 -10 -17 13 -22 56 -11 85 10 26 13 18 7 -18z m120 -9 c-11 -12 -25
-31 -31 -42 -9 -16 -11 -17 -12 -3 0 19 49 82 58 73 3 -3 -4 -15 -15 -28z
m-183 -43 c0 -4 -9 1 -20 11 -11 10 -20 23 -20 28 0 6 9 1 20 -11 11 -12 20
-24 20 -28z m45 -34 c3 -5 2 -10 -4 -10 -5 0 -13 5 -16 10 -3 6 -2 10 4 10 5
0 13 -4 16 -10z m53 -38 c20 -31 1 -27 -22 5 -12 16 -14 24 -6 21 7 -2 20 -14
28 -26z m-43 -3 c5 -5 -5 -4 -23 2 -17 6 -32 13 -32 16 0 7 43 -8 55 -18z
m156 -30 c19 -16 20 -18 4 -10 -34 17 -51 31 -39 31 7 0 22 -9 35 -21z m49
-95 c0 -28 -39 -95 -40 -68 0 5 5 15 12 22 6 6 11 32 10 58 0 32 3 43 9 33 5
-8 9 -28 9 -45z m-33 14 c-3 -8 -6 -5 -6 6 -1 11 2 17 5 13 3 -3 4 -12 1 -19z
m-22 -68 c-11 -12 -13 -20 -6 -20 7 0 9 -5 5 -12 -6 -9 -9 -9 -11 -1 -3 8 -14
7 -38 -3 -41 -17 -48 -17 -40 -4 8 13 3 13 -32 -1 -16 -6 -24 -6 -18 -1 6 6
28 17 50 26 34 13 37 13 21 1 -17 -13 -18 -15 -3 -15 9 0 31 13 49 29 36 32
52 33 23 1z m-135 15 c0 -5 -87 -65 -95 -65 -3 0 -3 5 0 10 3 6 1 10 -5 10 -6
0 -8 5 -5 10 3 6 11 10 16 10 6 0 7 -4 4 -10 -11 -18 9 -10 40 15 28 23 45 31
45 20z m30 -13 c0 -5 -12 -14 -27 -21 l-28 -11 24 20 c26 22 31 24 31 12z
m-172 -72 c-23 -32 -28 -36 -28 -20 0 10 36 50 45 50 3 0 -4 -13 -17 -30z
m-52 1 c-3 -4 -33 -11 -66 -15 -96 -11 -117 -25 -30 -20 l75 4 -73 -15 c-94
-18 -142 -34 -142 -47 0 -6 9 -8 20 -5 13 3 18 1 13 -5 -4 -8 5 -9 27 -5 23 5
36 3 44 -7 9 -11 23 -12 66 -6 77 12 112 12 105 0 -3 -5 -18 -11 -33 -11 -15
-1 -5 -5 23 -9 83 -13 105 -12 105 7 0 15 1 15 18 0 20 -19 47 -20 141 -11 42
5 58 10 49 16 -8 6 8 8 45 5 48 -3 57 -1 52 11 -4 12 3 13 38 8 45 -7 77 -1
77 15 0 4 -28 17 -62 29 -59 19 -60 20 -18 14 61 -8 113 -31 108 -46 -3 -7
-25 -21 -49 -30 -24 -9 -38 -17 -32 -17 7 -1 31 6 53 15 53 21 54 49 3 71 -21
8 -81 24 -133 33 -74 14 -86 18 -52 19 58 1 170 -25 210 -49 40 -24 41 -52 7
-120 -36 -71 -31 -80 18 -34 103 100 189 135 242 100 14 -9 25 -25 25 -35 0
-11 12 -42 27 -71 66 -127 21 -296 -84 -316 -29 -5 -34 -10 -29 -28 8 -33 -7
-47 -60 -57 -74 -14 -101 -28 -123 -65 -13 -22 -31 -36 -49 -40 -16 -3 -34
-14 -40 -25 -11 -18 -9 -19 30 -19 24 0 89 -7 145 -15 192 -27 273 -57 273
-100 0 -49 -64 -89 -206 -130 -150 -43 -301 -58 -589 -58 -359 0 -573 30 -722
104 -127 61 -107 125 50 159 41 9 284 40 311 40 4 0 -3 15 -16 33 -85 110
-105 268 -53 394 23 55 19 106 -16 172 -37 71 -33 93 22 121 56 29 268 63 255
41z m67 -16 c-3 -9 -8 -14 -10 -11 -3 3 -2 9 2 15 9 16 15 13 8 -4z m317 -15
c21 -7 19 -8 -15 -8 -22 0 -53 4 -70 8 -27 7 -25 8 15 8 25 0 56 -4 70 -8z
m-420 -30 c0 -5 -5 -10 -11 -10 -5 0 -7 5 -4 10 3 6 8 10 11 10 2 0 4 -4 4
-10z m-40 -9 c-20 -12 -90 -25 -90 -17 0 11 43 25 75 25 22 0 26 -2 15 -8z
m568 -11 c12 -8 0 -9 -43 -4 -85 10 -117 26 -37 19 35 -3 71 -10 80 -15z
m-478 -10 c0 -5 -7 -10 -15 -10 -8 0 -15 5 -15 10 0 6 7 10 15 10 8 0 15 -4
15 -10z m218 3 c-10 -2 -26 -2 -35 0 -10 3 -2 5 17 5 19 0 27 -2 18 -5z m74
-10 c-15 -3 -22 -10 -18 -19 3 -9 -1 -14 -14 -14 -19 0 -27 20 -13 33 3 4 20
6 37 6 25 -1 26 -3 8 -6z m98 -3 c0 -5 -4 -10 -9 -10 -6 0 -13 5 -16 10 -3 6
1 10 9 10 9 0 16 -4 16 -10z m-187 -17 c-7 -2 -19 -2 -25 0 -7 3 -2 5 12 5 14
0 19 -2 13 -5z m1669 -1170 c45 -5 47 -7 53 -45 4 -22 5 -42 2 -44 -2 -3 -22
6 -42 21 -24 16 -52 25 -76 25 -75 0 -59 -36 35 -79 76 -35 100 -61 99 -107
-2 -74 -64 -121 -142 -109 -25 4 -63 8 -83 8 -38 1 -38 1 -38 44 0 24 1 43 3
43 1 0 24 -11 51 -25 50 -26 72 -30 100 -19 35 14 16 42 -53 78 -112 59 -137
111 -83 173 27 32 84 55 112 46 8 -2 36 -7 62 -10z m-3232 -13 c5 -8 10 -28
10 -43 l0 -28 -30 21 c-21 15 -41 20 -67 18 l-38 -3 0 -50 c0 -53 4 -56 53
-41 21 7 22 5 22 -39 0 -41 -2 -46 -17 -40 -10 4 -29 10 -42 13 -24 5 -24 5
-18 -62 l6 -66 -52 0 -52 0 2 167 c1 93 2 170 3 171 0 2 47 2 105 0 80 -2 108
-7 115 -18z m293 3 c8 -10 34 -72 57 -138 22 -66 50 -135 60 -153 l20 -33 -63
3 c-61 3 -62 4 -65 33 -5 44 -19 55 -67 55 -46 0 -55 -9 -55 -61 0 -27 -2 -29
-40 -29 -44 0 -47 5 -26 36 20 28 96 251 96 280 0 21 5 24 33 24 20 0 41 -7
50 -17z m362 -153 l0 -170 -59 0 c-50 0 -57 2 -52 16 6 14 10 275 5 300 -4 21
4 24 54 24 l52 0 0 -170z m350 156 c33 -14 65 -59 65 -92 0 -10 -11 -37 -25
-60 l-26 -44 26 -49 c13 -27 29 -52 35 -56 25 -15 5 -25 -50 -25 -48 0 -60 3
-60 16 0 8 -10 38 -21 65 -39 89 -78 51 -50 -49 l10 -32 -57 0 -57 0 0 170 0
170 88 0 c53 0 101 -6 122 -14z m557 -122 c-3 -87 -1 -139 6 -146 18 -18 92
-11 116 11 30 28 33 27 28 -11 -8 -55 -14 -58 -136 -58 l-111 0 0 170 0 170
51 0 51 0 -5 -136z m360 14 c-4 -114 -2 -125 18 -150 37 -48 93 -32 109 30 10
41 8 197 -4 225 -6 14 -1 17 32 17 l40 0 -4 -82 c-7 -163 -12 -187 -46 -225
-27 -29 -41 -35 -87 -39 -47 -5 -60 -2 -90 18 -50 34 -61 65 -66 186 -3 59 -6
112 -9 119 -6 18 6 23 59 23 l51 0 -3 -122z m561 111 c14 0 17 -9 17 -45 l0
-45 -34 26 c-25 19 -44 25 -68 23 -94 -9 -107 -201 -16 -239 28 -11 36 -10 71
9 61 34 81 -5 23 -43 -41 -27 -97 -30 -148 -7 -129 57 -145 230 -28 310 31 21
42 23 100 17 36 -3 73 -6 83 -6z m320 -6 c8 -10 34 -72 57 -138 22 -66 50
-135 60 -153 l20 -33 -63 3 c-61 3 -62 4 -65 33 -5 44 -19 55 -67 55 -46 0
-55 -9 -55 -61 0 -27 -2 -29 -40 -29 -44 0 -47 5 -26 36 20 28 96 251 96 280
0 21 5 24 33 24 20 0 41 -7 50 -17z m-3163 -433 c0 -18 -7 -20 -60 -20 -53 0
-60 2 -60 20 0 18 7 20 60 20 53 0 60 -2 60 -20z m160 0 c0 -18 -7 -20 -60
-20 -53 0 -60 2 -60 20 0 18 7 20 60 20 53 0 60 -2 60 -20z m160 0 c0 -18 -7
-20 -60 -20 -53 0 -60 2 -60 20 0 18 7 20 60 20 53 0 60 -2 60 -20z m160 0 c0
-18 -7 -20 -60 -20 -53 0 -60 2 -60 20 0 18 7 20 60 20 53 0 60 -2 60 -20z
m160 0 c0 -18 -7 -20 -60 -20 -53 0 -60 2 -60 20 0 18 7 20 60 20 53 0 60 -2
60 -20z m160 0 c0 -18 -7 -20 -60 -20 -53 0 -60 2 -60 20 0 18 7 20 60 20 53
0 60 -2 60 -20z m160 0 c0 -18 -7 -20 -60 -20 -53 0 -60 2 -60 20 0 18 7 20
60 20 53 0 60 -2 60 -20z m160 0 c0 -18 -7 -20 -60 -20 -53 0 -60 2 -60 20 0
18 7 20 60 20 53 0 60 -2 60 -20z m160 0 c0 -18 -7 -20 -60 -20 -53 0 -60 2
-60 20 0 18 7 20 60 20 53 0 60 -2 60 -20z m160 0 c0 -18 -7 -20 -60 -20 -53
0 -60 2 -60 20 0 18 7 20 60 20 53 0 60 -2 60 -20z m160 0 c0 -18 -7 -20 -60
-20 -53 0 -60 2 -60 20 0 18 7 20 60 20 53 0 60 -2 60 -20z m160 0 c0 -18 -7
-20 -60 -20 -53 0 -60 2 -60 20 0 18 7 20 60 20 53 0 60 -2 60 -20z m160 0 c0
-18 -7 -20 -60 -20 -53 0 -60 2 -60 20 0 18 7 20 60 20 53 0 60 -2 60 -20z
m160 0 c0 -18 -7 -20 -60 -20 -53 0 -60 2 -60 20 0 18 7 20 60 20 53 0 60 -2
60 -20z m160 0 c0 -18 -7 -20 -60 -20 -53 0 -60 2 -60 20 0 18 7 20 60 20 53
0 60 -2 60 -20z m160 0 c0 -18 -7 -20 -60 -20 -53 0 -60 2 -60 20 0 18 7 20
60 20 53 0 60 -2 60 -20z m160 0 c0 -18 -7 -20 -60 -20 -53 0 -60 2 -60 20 0
18 7 20 60 20 53 0 60 -2 60 -20z m160 0 c0 -18 -7 -20 -60 -20 -53 0 -60 2
-60 20 0 18 7 20 60 20 53 0 60 -2 60 -20z m160 0 c0 -18 -7 -20 -60 -20 -53
0 -60 2 -60 20 0 18 7 20 60 20 53 0 60 -2 60 -20z m160 0 c0 -18 -7 -20 -60
-20 -53 0 -60 2 -60 20 0 18 7 20 60 20 53 0 60 -2 60 -20z m160 0 c0 -18 -7
-20 -60 -20 -53 0 -60 2 -60 20 0 18 7 20 60 20 53 0 60 -2 60 -20z m160 0 c0
-18 -7 -20 -60 -20 -53 0 -60 2 -60 20 0 18 7 20 60 20 53 0 60 -2 60 -20z
m160 0 c0 -18 -7 -20 -60 -20 -53 0 -60 2 -60 20 0 18 7 20 60 20 53 0 60 -2
60 -20z m160 0 c0 -18 -7 -20 -60 -20 -53 0 -60 2 -60 20 0 18 7 20 60 20 53
0 60 -2 60 -20z m160 0 c0 -18 -7 -20 -60 -20 -53 0 -60 2 -60 20 0 18 7 20
60 20 53 0 60 -2 60 -20z m-2786 -66 c39 -38 6 -94 -56 -94 l-38 0 0 55 0 55
39 0 c23 0 46 -7 55 -16z m226 6 c0 -5 -13 -10 -30 -10 -16 0 -30 -4 -30 -10
0 -5 11 -10 25 -10 14 0 25 -4 25 -10 0 -5 -11 -10 -25 -10 -16 0 -25 -6 -25
-15 0 -10 10 -15 30 -15 17 0 30 -4 30 -10 0 -5 -20 -10 -45 -10 l-45 0 0 55
0 55 45 0 c25 0 45 -4 45 -10z m157 -27 l16 -38 15 38 c8 20 21 37 29 37 9 0
13 -6 10 -12 -35 -88 -41 -99 -55 -96 -9 2 -26 27 -39 56 -19 43 -20 52 -7 52
8 0 22 -17 31 -37z m273 27 c0 -5 -11 -10 -25 -10 -14 0 -25 -4 -25 -10 0 -5
11 -10 25 -10 14 0 25 -4 25 -10 0 -5 -11 -10 -25 -10 -16 0 -25 -6 -25 -15 0
-10 10 -15 30 -15 17 0 30 -4 30 -10 0 -5 -20 -10 -45 -10 l-45 0 0 55 0 55
40 0 c22 0 40 -4 40 -10z m160 -35 c0 -41 2 -45 25 -45 14 0 25 -4 25 -10 0
-5 -18 -10 -40 -10 l-40 0 0 55 c0 42 3 55 15 55 11 0 15 -12 15 -45z m277 19
c15 -24 15 -29 2 -53 -12 -21 -22 -26 -54 -26 -32 0 -42 5 -54 26 -13 24 -13
29 2 53 13 20 26 26 52 26 26 0 39 -6 52 -26z m223 7 c14 -28 2 -51 -31 -58
-16 -3 -29 -12 -29 -19 0 -8 -7 -14 -15 -14 -12 0 -15 13 -15 55 l0 55 40 0
c29 0 42 -5 50 -19z m220 9 c0 -5 -13 -10 -30 -10 -16 0 -30 -4 -30 -10 0 -5
11 -10 25 -10 14 0 25 -4 25 -10 0 -5 -11 -10 -25 -10 -16 0 -25 -6 -25 -15 0
-10 10 -15 30 -15 17 0 30 -4 30 -10 0 -5 -20 -10 -45 -10 l-45 0 0 55 0 55
45 0 c25 0 45 -4 45 -10z m214 -12 c8 -13 8 -23 -2 -39 -10 -16 -10 -24 -1
-35 9 -11 8 -14 -4 -14 -8 0 -20 7 -27 15 -7 8 -16 15 -21 15 -5 0 -9 -7 -9
-15 0 -8 -7 -15 -15 -15 -12 0 -15 13 -15 56 l0 55 41 -3 c27 -2 46 -9 53 -20z
m-1924 -138 c0 -13 -7 -20 -20 -20 -13 0 -20 7 -20 20 0 13 7 20 20 20 13 0
20 -7 20 -20z m80 0 c0 -13 -7 -20 -20 -20 -13 0 -20 7 -20 20 0 13 7 20 20
20 13 0 20 -7 20 -20z m80 0 c0 -13 -7 -20 -20 -20 -13 0 -20 7 -20 20 0 13 7
20 20 20 13 0 20 -7 20 -20z m80 0 c0 -13 -7 -20 -20 -20 -13 0 -20 7 -20 20
0 13 7 20 20 20 13 0 20 -7 20 -20z m80 0 c0 -13 -7 -20 -20 -20 -13 0 -20 7
-20 20 0 13 7 20 20 20 13 0 20 -7 20 -20z m80 0 c0 -13 -7 -20 -20 -20 -13 0
-20 7 -20 20 0 13 7 20 20 20 13 0 20 -7 20 -20z m80 0 c0 -13 -7 -20 -20 -20
-13 0 -20 7 -20 20 0 13 7 20 20 20 13 0 20 -7 20 -20z m80 0 c0 -13 -7 -20
-20 -20 -13 0 -20 7 -20 20 0 13 7 20 20 20 13 0 20 -7 20 -20z m80 0 c0 -13
-7 -20 -20 -20 -13 0 -20 7 -20 20 0 13 7 20 20 20 13 0 20 -7 20 -20z m80 0
c0 -13 -7 -20 -20 -20 -13 0 -20 7 -20 20 0 13 7 20 20 20 13 0 20 -7 20 -20z
m80 0 c0 -13 -7 -20 -20 -20 -13 0 -20 7 -20 20 0 13 7 20 20 20 13 0 20 -7
20 -20z m80 0 c0 -13 -7 -20 -20 -20 -13 0 -20 7 -20 20 0 13 7 20 20 20 13 0
20 -7 20 -20z m80 0 c0 -13 -7 -20 -20 -20 -13 0 -20 7 -20 20 0 13 7 20 20
20 13 0 20 -7 20 -20z m80 0 c0 -13 -7 -20 -20 -20 -13 0 -20 7 -20 20 0 13 7
20 20 20 13 0 20 -7 20 -20z m80 0 c0 -13 -7 -20 -20 -20 -13 0 -20 7 -20 20
0 13 7 20 20 20 13 0 20 -7 20 -20z m80 0 c0 -13 -7 -20 -20 -20 -13 0 -20 7
-20 20 0 13 7 20 20 20 13 0 20 -7 20 -20z m80 0 c0 -13 -7 -20 -20 -20 -13 0
-20 7 -20 20 0 13 7 20 20 20 13 0 20 -7 20 -20z m80 0 c0 -13 -7 -20 -20 -20
-13 0 -20 7 -20 20 0 13 7 20 20 20 13 0 20 -7 20 -20z m80 0 c0 -13 -7 -20
-20 -20 -13 0 -20 7 -20 20 0 13 7 20 20 20 13 0 20 -7 20 -20z m80 0 c0 -13
-7 -20 -20 -20 -13 0 -20 7 -20 20 0 13 7 20 20 20 13 0 20 -7 20 -20z m80 0
c0 -13 -7 -20 -20 -20 -13 0 -20 7 -20 20 0 13 7 20 20 20 13 0 20 -7 20 -20z
m80 0 c0 -13 -7 -20 -20 -20 -13 0 -20 7 -20 20 0 13 7 20 20 20 13 0 20 -7
20 -20z m80 0 c0 -13 -7 -20 -20 -20 -13 0 -20 7 -20 20 0 13 7 20 20 20 13 0
20 -7 20 -20z m80 0 c0 -13 -7 -20 -20 -20 -13 0 -20 7 -20 20 0 13 7 20 20
20 13 0 20 -7 20 -20z m80 0 c0 -13 -7 -20 -20 -20 -13 0 -20 7 -20 20 0 13 7
20 20 20 13 0 20 -7 20 -20z m80 0 c0 -13 -7 -20 -20 -20 -13 0 -20 7 -20 20
0 13 7 20 20 20 13 0 20 -7 20 -20z m70 0 c0 -11 -7 -20 -15 -20 -8 0 -15 9
-15 20 0 11 7 20 15 20 8 0 15 -9 15 -20z"/>
<path d="M3070 3002 c-59 -27 -180 -139 -180 -167 0 -42 13 -43 34 -2 14 28
28 42 41 42 11 0 36 10 55 23 47 30 87 35 135 18 22 -8 36 -15 31 -16 -5 0 -1
-9 10 -21 13 -15 18 -36 19 -77 0 -102 -59 -172 -146 -172 -35 0 -69 -23 -55
-37 3 -4 -14 -19 -40 -33 -35 -21 -51 -39 -70 -80 -28 -61 -28 -61 -10 -54 8
3 21 23 30 44 10 25 22 39 33 38 15 0 57 8 131 28 20 5 14 42 -9 49 -15 5 -17
10 -9 20 13 15 60 26 60 14 0 -17 20 -9 21 9 0 9 3 12 5 5 18 -44 84 73 84
148 0 57 -21 128 -49 168 -13 17 -19 31 -15 31 3 0 1 7 -6 15 -13 15 -72 19
-100 7z m55 -32 c-3 -5 -14 -10 -23 -9 -14 0 -13 2 3 9 27 11 27 11 20 0z
m-50 -30 c-3 -5 -12 -10 -18 -10 -7 0 -6 4 3 10 19 12 23 12 15 0z m-55 -25
c-7 -8 -18 -15 -24 -15 -6 0 -2 7 8 15 25 19 32 19 16 0z"/>
<path d="M2130 2980 c8 -5 24 -10 34 -10 26 0 18 6 -19 14 -22 5 -26 4 -15 -4z"/>
<path d="M2871 2974 c-18 -8 -61 -22 -95 -29 -59 -14 -60 -14 -11 -9 38 4 47
3 39 -6 -17 -17 -81 -30 -149 -28 l-60 1 60 12 60 13 -100 2 c-76 2 -89 5 -55
9 29 4 -19 9 -135 14 -99 3 -193 9 -210 13 -23 4 -26 3 -15 -5 22 -16 -12 -14
-80 4 -30 8 -58 15 -62 15 -4 0 4 -21 17 -46 30 -57 31 -80 4 -164 -64 -199
13 -386 193 -471 35 -16 51 -26 36 -23 -32 7 -78 -2 -78 -15 0 -22 73 -34 230
-36 110 -2 142 0 95 4 -77 8 -80 10 -20 16 22 2 59 7 82 10 24 4 44 2 48 -5 3
-5 -2 -10 -12 -11 -10 0 -13 -3 -6 -5 16 -7 93 15 93 26 0 18 -48 22 -119 11
-38 -6 -105 -10 -148 -10 l-78 2 55 7 c30 5 80 9 110 11 l55 2 -50 7 c-27 4
-39 8 -25 9 l25 2 -25 11 -25 11 25 7 25 7 -25 5 c-19 3 -12 6 25 12 71 11
113 26 53 19 -67 -8 -62 13 5 23 47 7 49 8 22 14 -30 7 -30 7 -5 13 55 15 116
27 135 26 15 0 12 -5 -15 -20 -19 -11 -27 -18 -17 -15 9 3 17 1 17 -4 0 -5
-10 -12 -21 -15 -17 -6 -19 -9 -8 -16 8 -5 10 -9 4 -9 -5 0 -3 -5 5 -11 12 -8
9 -9 -12 -5 -21 5 -28 2 -28 -8 0 -8 6 -16 13 -19 6 -2 -10 -11 -38 -19 -27
-9 -41 -16 -29 -17 37 -2 142 58 183 106 80 90 105 211 70 338 -33 123 -34
143 -5 198 35 66 35 66 -23 41z m-751 -24 c13 -8 13 -10 -2 -10 -9 0 -20 5
-23 10 -8 13 5 13 25 0z m756 1 c-8 -12 -46 -21 -46 -11 0 9 18 18 38 19 7 1
11 -3 8 -8z m-609 -7 c-3 -3 -12 -4 -19 -1 -8 3 -5 6 6 6 11 1 17 -2 13 -5z
m110 -10 c-3 -3 -12 -4 -19 -1 -8 3 -5 6 6 6 11 1 17 -2 13 -5z m91 -1 c-10
-2 -28 -2 -40 0 -13 2 -5 4 17 4 22 1 32 -1 23 -4z m-328 -24 c0 -4 -7 -6 -15
-3 -8 4 -15 10 -15 15 0 4 7 6 15 3 8 -4 15 -10 15 -15z m730 16 c0 -8 -62
-37 -67 -31 -4 3 9 12 28 20 39 18 39 17 39 11z m-285 -25 c-3 -5 -15 -10 -26
-10 -10 0 -19 5 -19 10 0 6 12 10 26 10 14 0 23 -4 19 -10z m-68 -6 c-3 -3
-12 -4 -19 -1 -8 3 -5 6 6 6 11 1 17 -2 13 -5z m273 -3 c0 -13 -82 -31 -146
-31 -72 0 -63 10 23 26 85 15 123 17 123 5z m50 -16 c-7 -8 -20 -15 -29 -15
-13 1 -13 3 3 15 26 19 42 19 26 0z m-685 -5 c3 -5 2 -10 -4 -10 -5 0 -13 5
-16 10 -3 6 -2 10 4 10 5 0 13 -4 16 -10z m345 -10 c0 -5 -4 -10 -10 -10 -5 0
-10 5 -10 10 0 6 5 10 10 10 6 0 10 -4 10 -10z m75 0 c-3 -5 -15 -10 -26 -10
-10 0 -19 5 -19 10 0 6 12 10 26 10 14 0 23 -4 19 -10z m205 -5 c0 -3 -15 -11
-32 -19 l-33 -15 34 6 c46 8 33 -13 -17 -27 -40 -11 -119 -14 -109 -4 3 4 21
10 39 14 28 7 22 8 -31 9 -35 1 -62 4 -58 7 10 11 207 38 207 29z m-615 -15
c3 -5 2 -10 -4 -10 -5 0 -13 5 -16 10 -3 6 -2 10 4 10 5 0 13 -4 16 -10z m670
0 c-3 -5 -14 -10 -23 -10 -15 0 -15 2 -2 10 20 13 33 13 25 0z m-302 -21 c-8
-8 -16 -8 -30 0 -16 9 -14 10 12 11 21 0 26 -3 18 -11z m-388 -9 c3 -5 2 -10
-4 -10 -5 0 -13 5 -16 10 -3 6 -2 10 4 10 5 0 13 -4 16 -10z m681 -5 c-11 -8
-22 -12 -25 -9 -6 6 19 24 34 24 6 -1 1 -7 -9 -15z m-306 -15 c0 -5 -4 -10
-10 -10 -5 0 -10 5 -10 10 0 6 5 10 10 10 6 0 10 -4 10 -10z m67 -1 c-14 -8
-22 -8 -30 0 -8 8 -3 11 19 11 25 -1 27 -2 11 -11z m189 -8 c-8 -12 -96 -31
-148 -31 -59 0 -44 7 58 28 93 20 100 20 90 3z m-630 -16 c10 -8 14 -15 8 -15
-5 0 -19 7 -30 15 -10 8 -14 15 -8 15 5 0 19 -7 30 -15z m690 0 c-11 -8 -25
-15 -30 -15 -6 0 -2 7 8 15 11 8 25 15 30 15 6 0 2 -7 -8 -15z m-261 -15 c-3
-5 -12 -10 -20 -10 -8 0 -17 5 -20 10 -4 6 5 10 20 10 15 0 24 -4 20 -10z
m192 -14 c-23 -17 -125 -36 -197 -36 -80 0 -54 11 72 30 148 23 147 22 125 6z
m83 -11 c-7 -8 -20 -15 -29 -15 -13 1 -13 3 3 15 26 19 42 19 26 0z m-710 -5
c13 -8 13 -10 -2 -10 -9 0 -20 5 -23 10 -8 13 5 13 25 0z m270 -10 c12 -8 9
-10 -12 -10 -16 0 -28 5 -28 10 0 13 20 13 40 0z m83 -7 c-13 -2 -33 -2 -45 0
-13 2 -3 4 22 4 25 0 35 -2 23 -4z m261 -20 c-39 -14 -213 -29 -184 -16 24 10
204 39 214 34 5 -2 -8 -11 -30 -18z m-629 -3 c3 -5 2 -10 -4 -10 -5 0 -13 5
-16 10 -3 6 -2 10 4 10 5 0 13 -4 16 -10z m721 -5 c-11 -8 -25 -15 -30 -15 -6
0 -2 7 8 15 11 8 25 15 30 15 6 0 2 -7 -8 -15z m-393 -12 c-7 -2 -19 -2 -25 0
-7 3 -2 5 12 5 14 0 19 -2 13 -5z m70 0 c-7 -2 -21 -2 -30 0 -10 3 -4 5 12 5
17 0 24 -2 18 -5z m257 -13 c0 -15 -76 -31 -128 -28 l-47 3 75 16 c93 21 100
21 100 9z m-675 -10 c3 -5 1 -10 -4 -10 -6 0 -11 5 -11 10 0 6 2 10 4 10 3 0
8 -4 11 -10z m732 -17 c-9 -9 -20 -13 -24 -9 -4 4 -1 11 7 16 25 16 35 11 17
-7z m-252 -3 c4 -6 -5 -10 -20 -10 -15 0 -24 4 -20 10 3 6 12 10 20 10 8 0 17
-4 20 -10z m-78 -6 c-3 -3 -12 -4 -19 -1 -8 3 -5 6 6 6 11 1 17 -2 13 -5z
m273 -14 c-33 -20 -206 -43 -188 -25 7 8 192 42 198 38 2 -2 -2 -8 -10 -13z
m-680 0 c0 -5 -2 -10 -4 -10 -3 0 -8 5 -11 10 -3 6 -1 10 4 10 6 0 11 -4 11
-10z m746 -15 c-11 -8 -25 -15 -30 -15 -6 0 -2 7 8 15 11 8 25 15 30 15 6 0 2
-7 -8 -15z m-349 -11 c-3 -3 -12 -4 -19 -1 -8 3 -5 6 6 6 11 1 17 -2 13 -5z
m66 -5 c-8 -8 -16 -8 -30 0 -16 9 -14 10 12 11 21 0 26 -3 18 -11z m217 -9
c-25 -16 -116 -31 -162 -28 -37 3 -29 6 62 24 105 20 128 21 100 4z m-675 0
c3 -5 2 -10 -4 -10 -5 0 -13 5 -16 10 -3 6 -2 10 4 10 5 0 13 -4 16 -10z m760
-10 c-3 -5 -13 -10 -21 -10 -8 0 -12 5 -9 10 3 6 13 10 21 10 8 0 12 -4 9 -10z
m-375 -20 c0 -5 -2 -10 -4 -10 -3 0 -8 5 -11 10 -3 6 -1 10 4 10 6 0 11 -4 11
-10z m75 0 c-3 -5 -12 -10 -20 -10 -8 0 -17 5 -20 10 -4 6 5 10 20 10 15 0 24
-4 20 -10z m245 2 c0 -15 -72 -33 -150 -37 -92 -6 -81 0 41 24 118 23 109 22
109 13z m-695 -12 c3 -5 1 -10 -4 -10 -6 0 -11 5 -11 10 0 6 2 10 4 10 3 0 8
-4 11 -10z m745 -5 c-7 -8 -20 -15 -29 -15 -11 1 -8 5 9 15 32 18 35 18 20 0z
m-285 -25 c-3 -5 -15 -10 -26 -10 -10 0 -19 5 -19 10 0 6 12 10 26 10 14 0 23
-4 19 -10z m221 -5 c-25 -19 -115 -37 -163 -33 -32 2 -23 6 57 24 119 27 131
28 106 9z m-293 -2 c-7 -2 -19 -2 -25 0 -7 3 -2 5 12 5 14 0 19 -2 13 -5z
m-347 -30 c-7 -7 -26 7 -26 19 0 6 6 6 15 -2 9 -7 13 -15 11 -17z m694 18 c0
-5 -7 -12 -16 -15 -24 -9 -28 -7 -14 9 14 17 30 20 30 6z m-265 -21 c-3 -5
-15 -10 -26 -10 -11 0 -17 5 -14 10 3 6 15 10 26 10 11 0 17 -4 14 -10z m-72
-7 c-7 -2 -19 -2 -25 0 -7 3 -2 5 12 5 14 0 19 -2 13 -5z m305 -17 c-10 -7
-18 -18 -18 -25 0 -6 -2 -11 -4 -11 -2 0 -13 -3 -23 -6 -16 -5 -16 -4 -2 8 8
7 18 21 22 31 3 9 14 17 24 17 17 -1 17 -1 1 -14z m-633 -6 c3 -5 1 -10 -6
-10 -7 0 -4 -7 7 -15 10 -8 14 -15 7 -15 -13 0 -26 17 -29 38 -3 14 12 16 21
2z m410 -10 c-3 -5 -15 -10 -26 -10 -11 0 -17 5 -14 10 3 6 15 10 26 10 11 0
17 -4 14 -10z m-78 -6 c-3 -3 -12 -4 -19 -1 -8 3 -5 6 6 6 11 1 17 -2 13 -5z
m13 -24 c0 -5 -10 -10 -22 -10 -19 0 -20 2 -8 10 19 13 30 13 30 0z m-295 -20
c3 -5 1 -10 -4 -10 -6 0 -11 5 -11 10 0 6 2 10 4 10 3 0 8 -4 11 -10z m188
-17 c-7 -2 -19 -2 -25 0 -7 3 -2 5 12 5 14 0 19 -2 13 -5z m65 0 c-10 -2 -26
-2 -35 0 -10 3 -2 5 17 5 19 0 27 -2 18 -5z m-58 -23 c0 -5 -7 -7 -15 -4 -8 4
-15 8 -15 10 0 2 7 4 15 4 8 0 15 -4 15 -10z m70 0 c0 -5 -9 -10 -20 -10 -11
0 -20 5 -20 10 0 6 9 10 20 10 11 0 20 -4 20 -10z m-203 -6 c-3 -3 -12 -4 -19
-1 -8 3 -5 6 6 6 11 1 17 -2 13 -5z m206 -21 c-7 -2 -19 -2 -25 0 -7 3 -2 5
12 5 14 0 19 -2 13 -5z m204 -39 c-3 -3 -12 -4 -19 -1 -8 3 -5 6 6 6 11 1 17
-2 13 -5z m-230 -20 c-3 -3 -12 -4 -19 -1 -8 3 -5 6 6 6 11 1 17 -2 13 -5z"/>
<path d="M2788 2973 c7 -3 16 -2 19 1 4 3 -2 6 -13 5 -11 0 -14 -3 -6 -6z"/>
<path d="M2728 2963 c7 -3 16 -2 19 1 4 3 -2 6 -13 5 -11 0 -14 -3 -6 -6z"/>
<path d="M2648 2953 c7 -3 16 -2 19 1 4 3 -2 6 -13 5 -11 0 -14 -3 -6 -6z"/>
<path d="M3041 2888 c-25 -13 -58 -40 -74 -60 -28 -34 -29 -40 -31 -152 -2
-64 -1 -116 1 -116 17 0 62 33 66 49 6 24 44 41 88 41 88 0 143 165 76 228
-36 34 -75 37 -126 10z"/>
<path d="M2115 2343 c-157 -10 -384 -58 -400 -83 -29 -46 97 -108 290 -144
206 -38 631 -46 865 -16 194 25 381 90 388 136 2 12 -4 24 -13 28 -12 4 -14 2
-6 -13 21 -39 -50 -67 -244 -97 -160 -25 -665 -30 -899 -10 -256 23 -321 38
-357 82 -13 17 -13 17 11 1 25 -18 51 -23 49 -9 -4 22 3 24 16 5 29 -41 180
-60 545 -67 135 -3 235 -3 223 0 -39 9 -25 24 23 24 27 0 43 -4 39 -10 -4 -6
21 -10 67 -9 45 0 65 3 53 8 -16 7 -14 9 14 14 19 4 59 6 90 6 48 -1 52 -3 26
-10 -20 -5 -5 -7 45 -3 123 8 159 15 195 40 27 18 35 20 35 9 0 -19 20 -19 45
-1 18 13 18 15 -14 34 -22 13 -28 22 -19 26 7 3 1 4 -14 2 -15 -1 -25 0 -23 4
2 4 -24 12 -59 18 -73 14 -100 14 -71 2 20 -8 19 -9 -1 -9 -12 -1 -27 6 -34
14 -7 8 -22 15 -34 15 -17 0 -18 -2 -6 -10 12 -8 10 -10 -10 -11 -14 0 5 -7
42 -14 75 -15 119 -34 126 -53 4 -13 -56 -43 -85 -41 -10 0 2 7 25 16 54 19
45 30 -35 49 -72 17 -265 29 -215 14 40 -13 42 -24 3 -15 -21 4 -30 2 -35 -10
-3 -9 -20 -22 -38 -30 -18 -8 -27 -14 -20 -15 7 0 10 -4 7 -10 -8 -13 -52 -13
-60 1 -4 6 -14 7 -24 3 -24 -10 -215 -6 -295 7 -50 8 -76 18 -93 35 -13 13
-34 24 -46 25 -15 0 -9 5 18 14 l40 14 -50 -4 c-27 -2 -79 -7 -115 -11 -96 -9
-68 4 41 20 52 8 82 14 67 15 -20 1 -26 5 -22 16 4 8 5 14 3 13 -2 -1 -26 -3
-54 -5z m-146 -37 c-12 -10 -59 -15 -59 -6 0 5 14 10 32 10 17 0 29 -2 27 -4z
m1118 -12 c-3 -3 -12 -4 -19 -1 -8 3 -5 6 6 6 11 1 17 -2 13 -5z m-1154 -36
c-27 -13 -29 -24 -7 -32 9 -4 15 -9 12 -11 -10 -11 -38 8 -38 25 0 19 13 28
40 29 9 0 5 -5 -7 -11z m194 -5 c-4 -3 -1 -13 6 -21 10 -13 9 -14 -3 -10 -19
6 -26 38 -9 38 7 0 9 -3 6 -7z m720 -29 c-8 -8 -81 -24 -86 -19 -2 3 9 9 25
15 16 5 36 14 44 19 14 8 28 -4 17 -15z m99 1 c-20 -15 -36 -19 -36 -10 0 5
38 23 50 24 3 0 -4 -6 -14 -14z m-589 -121 c-3 -3 -12 -4 -19 -1 -8 3 -5 6 6
6 11 1 17 -2 13 -5z m81 -1 c-10 -2 -28 -2 -40 0 -13 2 -5 4 17 4 22 1 32 -1
23 -4z m120 0 c-15 -2 -42 -2 -60 0 -18 2 -6 4 27 4 33 0 48 -2 33 -4z m110 0
c-10 -2 -28 -2 -40 0 -13 2 -5 4 17 4 22 1 32 -1 23 -4z"/>
<path d="M2823 2313 c9 -2 25 -2 35 0 9 3 1 5 -18 5 -19 0 -27 -2 -17 -5z"/>
<path d="M799 1803 c-1 -5 -1 -11 0 -15 0 -5 -4 -8 -10 -8 -8 0 -8 -4 1 -15 6
-8 9 -19 5 -25 -3 -5 -2 -10 4 -10 5 0 12 6 14 13 4 9 6 9 6 -1 1 -8 -8 -16
-19 -19 -21 -6 -28 -33 -9 -33 8 0 8 -5 -1 -15 -10 -12 -10 -15 0 -15 10 0 10
-3 1 -14 -10 -11 -8 -17 6 -25 17 -10 17 -10 -2 -11 -17 0 -17 -2 -5 -10 10
-6 11 -10 3 -10 -8 0 -13 -13 -13 -30 0 -26 3 -30 28 -29 l27 0 -25 11 -25 10
23 11 c15 7 22 17 19 27 -2 10 0 25 5 35 8 12 6 20 -3 26 -9 6 0 8 26 5 22 -2
31 -1 20 1 -28 6 -45 31 -45 66 0 17 -8 36 -17 43 -17 13 -17 14 2 8 19 -5 19
-5 3 9 -10 8 -15 17 -11 20 3 4 3 7 0 7 -4 0 -8 -3 -8 -7z"/>
<path d="M1202 1683 c-6 -20 -9 -40 -6 -45 7 -11 41 -10 49 2 5 8 -19 80 -28
80 -2 0 -9 -16 -15 -37z"/>
<path d="M1166 1631 c-4 -7 -5 -15 -2 -18 9 -9 19 4 14 18 -4 11 -6 11 -12 0z"/>
<path d="M1317 1569 c4 -13 8 -18 11 -10 2 7 -1 18 -6 23 -8 8 -9 4 -5 -13z"/>
<path d="M1300 1540 c0 -5 5 -10 11 -10 5 0 7 5 4 10 -3 6 -8 10 -11 10 -2 0
-4 -4 -4 -10z"/>
<path d="M1559 1815 c-5 -19 -4 -32 3 -47 5 -10 4 -19 -2 -23 -13 -8 -3 -43
17 -63 21 -21 26 -9 27 65 1 61 -1 66 -21 69 -13 2 -24 2 -24 -1z m18 -107
c-3 -7 -5 -2 -5 12 0 14 2 19 5 13 2 -7 2 -19 0 -25z"/>
<path d="M1560 1650 c0 -5 5 -10 11 -10 5 0 7 5 4 10 -3 6 -8 10 -11 10 -2 0
-4 -4 -4 -10z"/>
<path d="M1874 1776 c-3 -8 -4 -31 -2 -52 3 -36 6 -39 32 -39 23 0 31 6 38 26
13 39 -6 79 -37 79 -14 0 -28 -6 -31 -14z"/>
<path d="M1810 1719 c0 -5 4 -8 9 -4 6 3 15 -3 21 -12 11 -17 11 -17 6 0 -3
10 -6 21 -6 23 0 2 -7 4 -15 4 -8 0 -15 -5 -15 -11z"/>
<path d="M1838 1673 c7 -3 16 -2 19 1 4 3 -2 6 -13 5 -11 0 -14 -3 -6 -6z"/>
<path d="M2470 1803 c0 -15 16 -17 25 -3 4 6 11 7 17 4 6 -4 8 -2 4 4 -9 15
-46 11 -46 -5z"/>
<path d="M2490 1773 c0 -15 -2 -16 -10 -3 -7 10 -10 -12 -10 -72 0 -65 3 -87
13 -85 6 1 11 -3 10 -10 -1 -6 4 -14 13 -17 13 -5 15 9 13 99 -1 82 -4 105
-15 105 -8 0 -14 -8 -14 -17z"/>
<path d="M2473 1582 c0 -10 7 -19 14 -19 17 0 16 5 -1 23 -13 12 -15 12 -13
-4z"/>
<path d="M2833 1807 c-5 -7 -8 -56 -7 -111 2 -74 6 -102 18 -114 9 -9 17 -12
17 -7 1 6 3 19 5 30 15 78 16 98 3 106 -10 6 -11 9 -1 9 7 0 12 13 12 30 0 17
-5 30 -11 30 -6 0 -9 6 -6 14 7 18 -19 29 -30 13z m27 -147 c0 -5 -7 -7 -15
-4 -8 4 -15 8 -15 10 0 2 7 4 15 4 8 0 15 -4 15 -10z"/>
<path d="M3056 1784 c4 -37 11 -39 12 -4 0 16 -3 30 -7 30 -5 0 -7 -12 -5 -26z"/>
<path d="M2870 1580 c0 -5 5 -10 11 -10 5 0 7 5 4 10 -3 6 -8 10 -11 10 -2 0
-4 -4 -4 -10z"/>
<path d="M3268 1593 c-21 -5 -23 -19 -5 -29 6 -4 9 -4 5 1 -4 4 0 14 10 21 18
14 17 14 -10 7z"/>
<path d="M3303 1545 c0 -15 47 -36 81 -34 18 1 17 2 -5 9 -14 4 -37 15 -51 24
-21 14 -25 14 -25 1z"/>
<path d="M3712 1683 c-6 -20 -9 -40 -6 -45 7 -11 41 -10 49 2 5 8 -19 80 -28
80 -2 0 -9 -16 -15 -37z"/>
<path d="M3676 1631 c-4 -7 -5 -15 -2 -18 9 -9 19 4 14 18 -4 11 -6 11 -12 0z"/>
<path d="M3827 1569 c4 -13 8 -18 11 -10 2 7 -1 18 -6 23 -8 8 -9 4 -5 -13z"/>
<path d="M3810 1540 c0 -5 5 -10 11 -10 5 0 7 5 4 10 -3 6 -8 10 -11 10 -2 0
-4 -4 -4 -10z"/>
<path d="M1610 1286 c0 -22 5 -36 13 -36 42 1 51 62 10 68 -20 3 -23 -1 -23
-32z"/>
<path d="M2690 1306 c-27 -33 18 -72 48 -42 13 13 14 20 6 34 -15 23 -38 26
-54 8z"/>
<path d="M2930 1300 c0 -15 5 -20 18 -18 9 2 17 10 17 18 0 8 -8 16 -17 18
-13 2 -18 -3 -18 -18z"/>
<path d="M3360 1300 c0 -15 5 -20 18 -18 9 2 17 10 17 18 0 8 -8 16 -17 18
-13 2 -18 -3 -18 -18z"/>
</g>
</svg>
