<?xml version="1.0" standalone="no"?>
<!DOCTYPE svg PUBLIC "-//W3C//DTD SVG 20010904//EN"
 "http://www.w3.org/TR/2001/REC-SVG-20010904/DTD/svg10.dtd">
<svg version="1.0" xmlns="http://www.w3.org/2000/svg"
 width="640.000000pt" height="640.000000pt" viewBox="0 0 640.000000 640.000000"
 preserveAspectRatio="xMidYMid meet">

<g transform="translate(0.000000,640.000000) scale(0.100000,-0.100000)"
fill="#000000" stroke="none">
<path d="M3166 6358 c-4 -13 -19 -211 -20 -258 0 -14 4 -46 8 -72 8 -45 7 -47
-23 -62 -26 -14 -31 -22 -31 -55 0 -21 -3 -41 -6 -44 -9 -9 -95 70 -144 132
-47 59 -116 109 -131 94 -12 -12 39 -90 92 -138 33 -30 40 -41 35 -61 -6 -21
2 -35 41 -78 26 -29 68 -78 92 -110 39 -50 43 -60 33 -77 -8 -12 -10 -33 -7
-53 5 -23 2 -36 -9 -45 -17 -14 -22 -66 -7 -75 4 -3 22 0 38 6 34 13 65 5 57
-14 -3 -7 -24 -22 -46 -33 -62 -30 -66 -43 -35 -116 29 -67 28 -79 -8 -79 -13
0 -27 -5 -31 -11 -3 -6 -8 -76 -9 -155 -3 -143 -3 -145 21 -160 32 -21 30 -44
-5 -78 -24 -23 -29 -38 -36 -99 -10 -104 -10 -126 4 -182 24 -100 25 -148 3
-175 l-20 -25 20 -34 c18 -28 19 -39 10 -65 -25 -74 -24 -122 2 -175 30 -59
59 -71 168 -71 62 0 69 2 85 27 14 21 17 43 15 98 -2 38 -3 93 -3 120 1 28 5
216 9 419 l7 370 -29 15 c-55 31 -67 45 -74 94 -5 37 -13 50 -32 60 -29 15
-32 35 -8 51 13 8 25 6 47 -7 28 -16 30 -16 47 0 9 9 23 32 31 51 12 30 12 37
-5 65 -10 18 -25 47 -32 64 -11 30 -10 35 12 62 21 24 26 43 31 110 6 98 20
124 133 241 121 127 142 182 62 159 -32 -8 -37 -14 -40 -42 -3 -28 -6 -32 -30
-29 -20 2 -31 -4 -45 -25 -24 -38 -32 -42 -62 -32 -46 16 -77 89 -91 214 -20
175 -32 261 -41 278 -11 20 -38 23 -43 5z"/>
<path d="M3870 5967 c0 -26 87 -169 171 -279 47 -62 142 -197 212 -299 70
-102 164 -230 209 -284 82 -99 148 -198 148 -221 0 -7 -13 -17 -29 -22 -67
-23 -168 -149 -142 -175 19 -19 12 -27 -25 -27 -72 0 -122 -44 -148 -132 -4
-12 -15 -18 -34 -18 -17 0 -37 -9 -48 -21 -10 -11 -53 -45 -96 -75 -53 -37
-84 -67 -98 -93 -20 -41 -63 -81 -86 -81 -22 0 -44 -30 -44 -61 0 -30 -3 -33
-51 -43 -17 -4 -45 -29 -75 -68 -89 -113 -157 -179 -234 -225 -41 -26 -91 -61
-110 -80 -20 -18 -43 -33 -52 -33 -20 0 -34 19 -30 41 4 21 -30 45 -145 103
-97 48 -95 48 -127 2 -19 -28 -46 -13 -91 50 -71 101 -85 113 -187 165 -117
61 -156 91 -175 137 -9 22 -19 32 -31 30 -19 -4 -29 -40 -31 -115 -1 -51 -24
-93 -50 -93 -4 0 -24 24 -44 53 -20 28 -48 66 -62 83 -14 18 -28 48 -32 67 -5
31 -3 36 18 39 20 2 23 8 21 33 -2 17 -4 50 -5 75 -2 42 -8 50 -77 120 -160
159 -325 312 -343 319 -11 4 -47 4 -80 -1 -67 -9 -78 -4 -103 47 -15 33 -15
33 43 121 32 49 72 115 88 146 18 35 37 58 47 58 33 0 239 273 259 343 5 20
28 59 49 86 22 28 40 60 40 71 0 15 11 26 38 38 42 18 68 46 78 86 9 39 -8 33
-87 -30 -82 -65 -159 -155 -236 -276 -31 -49 -59 -88 -64 -88 -18 0 -67 -52
-72 -78 -3 -15 -30 -52 -59 -83 -71 -72 -94 -106 -103 -149 -16 -75 -36 -109
-80 -134 -61 -36 -175 -207 -168 -253 6 -35 57 -91 67 -74 11 17 53 13 60 -5
3 -9 3 -20 0 -25 -3 -6 0 -17 8 -26 26 -32 250 -213 263 -213 8 0 17 -10 21
-22 11 -35 111 -134 194 -193 41 -30 86 -70 99 -89 14 -21 32 -36 43 -36 23 0
243 -202 264 -242 9 -17 31 -32 61 -44 59 -22 80 -39 104 -86 14 -28 26 -38
43 -38 18 0 31 -12 50 -45 21 -35 34 -46 61 -51 42 -8 60 -31 82 -104 16 -54
16 -54 -8 -69 -13 -8 -60 -51 -104 -96 -44 -45 -105 -98 -135 -118 -57 -37
-179 -151 -205 -190 -16 -25 -10 -67 10 -67 7 0 34 9 60 20 56 24 96 25 135 5
37 -19 38 -32 5 -45 -14 -5 -25 -16 -25 -25 0 -8 -17 -26 -37 -39 -21 -13 -53
-40 -70 -61 l-33 -37 -107 57 c-70 38 -109 53 -111 45 -2 -6 -17 -27 -33 -45
-42 -47 -37 -61 29 -93 50 -24 57 -31 57 -57 0 -28 -3 -30 -44 -35 -42 -5 -47
-8 -78 -62 -38 -65 -47 -68 -129 -43 -87 26 -111 21 -211 -44 -66 -44 -100
-74 -127 -114 -27 -39 -53 -63 -91 -82 -30 -16 -58 -39 -65 -53 -6 -14 -14
-63 -17 -109 -6 -81 -7 -85 -42 -114 -19 -16 -41 -29 -48 -29 -7 0 -25 22 -41
50 -15 27 -32 50 -37 50 -6 0 -29 -18 -50 -40 -35 -36 -38 -43 -27 -60 7 -11
15 -41 19 -66 5 -39 12 -49 43 -69 20 -13 72 -62 115 -109 61 -67 99 -98 179
-146 71 -42 110 -73 131 -102 57 -80 130 -150 186 -179 37 -18 65 -41 79 -64
15 -24 29 -35 45 -35 19 0 27 -9 41 -47 24 -66 55 -106 109 -139 36 -23 70
-63 151 -181 99 -144 108 -153 162 -179 31 -14 73 -31 92 -36 19 -6 51 -24 71
-42 20 -17 56 -46 79 -65 51 -41 80 -86 80 -125 0 -24 18 -47 95 -122 52 -51
95 -100 95 -108 0 -21 55 -82 79 -89 26 -7 36 2 50 45 7 20 23 53 37 73 37 56
70 124 90 190 23 76 30 85 67 85 63 0 141 76 243 239 81 129 173 219 277 271
99 50 115 65 175 155 70 107 128 172 172 191 35 16 40 22 40 50 0 29 13 43
123 137 164 140 227 208 227 244 0 21 8 33 30 46 17 10 37 31 45 47 9 17 41
43 88 68 114 63 171 139 139 189 -11 17 -58 33 -98 33 -19 0 -36 6 -38 13 -27
94 -33 104 -107 178 -54 53 -89 79 -119 88 -29 9 -47 22 -61 45 -21 36 -57 63
-154 117 -85 47 -109 66 -144 114 -24 34 -38 43 -68 47 -39 6 -132 56 -133 72
0 5 8 18 17 28 16 18 13 22 -58 95 -41 41 -93 84 -116 94 -30 14 -44 28 -52
52 -8 23 -24 39 -58 57 -37 19 -49 31 -51 52 -3 21 -10 30 -30 34 -52 12 -242
215 -242 258 0 13 20 43 48 72 26 27 57 60 67 74 11 14 43 42 70 62 28 20 61
48 75 63 22 24 188 167 289 249 20 16 113 104 206 196 94 92 203 193 243 225
107 83 159 163 117 179 -21 8 -19 33 4 46 28 15 38 13 44 -10 8 -32 44 -24 99
23 122 103 152 135 171 176 l19 44 -54 48 c-30 26 -94 97 -142 157 -48 61 -99
118 -112 127 -14 9 -41 42 -61 73 -47 75 -72 102 -95 102 -10 0 -41 18 -69 40
-28 22 -59 40 -70 40 -27 0 -61 58 -54 91 5 20 0 31 -18 46 -13 10 -31 32 -40
48 -9 17 -41 48 -71 70 -30 22 -68 61 -85 87 -29 44 -42 52 -96 60 -13 2 -21
12 -23 28 -6 55 -33 98 -64 104 -43 8 -48 8 -48 -7z m-433 -2941 c18 -23 77
-88 130 -143 84 -87 104 -102 138 -108 55 -8 74 -20 57 -37 -23 -23 -13 -47
31 -69 103 -53 219 -151 279 -237 19 -27 62 -64 112 -97 50 -33 110 -84 157
-137 42 -45 87 -89 101 -97 23 -12 29 -11 56 9 35 26 57 19 97 -34 42 -55 29
-107 -31 -132 -45 -19 -54 -42 -25 -66 30 -23 46 -23 71 2 11 11 26 20 33 20
19 0 37 -44 37 -90 0 -33 -5 -41 -36 -61 -33 -20 -41 -21 -78 -10 -83 25 -80
25 -99 -14 -22 -46 -36 -51 -93 -29 -44 17 -47 17 -77 0 -18 -10 -110 -97
-205 -194 l-173 -176 22 -41 c42 -76 77 -100 65 -45 -7 36 12 82 32 78 16 -3
47 -112 36 -129 -3 -5 -14 -9 -25 -9 -11 0 -22 -7 -26 -15 -7 -20 -63 -49 -72
-38 -4 4 -13 28 -20 53 -23 79 -59 100 -98 57 -37 -39 -37 -61 -2 -125 21 -37
30 -65 26 -76 -7 -17 -9 -17 -39 2 -26 16 -44 19 -88 15 -48 -5 -63 -12 -124
-61 -83 -68 -94 -88 -76 -142 11 -34 11 -42 -4 -65 -11 -16 -26 -25 -44 -25
-36 -1 -62 -17 -101 -62 -18 -21 -36 -36 -40 -34 -11 7 -4 389 8 419 8 20 9
64 3 145 -5 66 -4 133 1 153 11 46 -6 113 -35 133 l-21 15 26 58 c33 73 42
166 27 263 -22 149 -23 158 -7 197 15 39 15 37 -9 319 -4 44 -2 92 6 123 10
44 10 55 -4 75 -8 14 -25 27 -36 31 -26 8 -25 19 5 59 29 39 31 60 9 127 -16
47 -15 52 1 89 21 46 14 60 -29 60 -36 0 -56 15 -56 42 0 14 8 18 41 18 36 0
41 3 54 33 17 42 23 47 54 47 19 -1 35 -13 58 -44z m-390 -85 c12 -35 12 -53
3 -89 -11 -44 -10 -48 19 -89 37 -52 37 -54 9 -104 -20 -36 -20 -40 -5 -57 17
-19 117 -72 135 -72 10 0 32 -52 32 -75 0 -6 -14 -22 -32 -35 -30 -22 -32 -22
-63 -5 -43 22 -73 12 -91 -31 -19 -45 -17 -125 5 -272 19 -121 19 -124 0 -178
-19 -53 -19 -59 -2 -212 19 -176 20 -236 9 -303 -8 -42 -6 -48 12 -53 30 -10
93 -73 87 -88 -3 -7 -22 -23 -43 -35 -35 -20 -39 -26 -51 -88 -7 -38 -11 -145
-11 -253 1 -248 1 -242 -9 -242 -5 0 -14 23 -21 50 -15 61 -52 101 -109 118
-22 7 -49 21 -58 32 -10 10 -30 21 -45 25 -24 6 -28 12 -28 44 0 42 -30 80
-88 110 -20 11 -77 61 -127 111 -49 51 -163 157 -253 237 l-163 145 -34 -16
c-32 -16 -37 -16 -67 0 -18 9 -79 23 -136 30 -103 12 -152 31 -152 59 0 11 13
15 55 15 36 0 70 7 94 20 47 23 85 68 72 84 -4 6 -29 39 -55 73 -38 51 -56 66
-97 80 -30 11 -49 24 -49 33 0 24 94 112 116 108 14 -2 20 4 22 21 2 14 14 33
27 43 13 10 25 28 27 41 2 15 19 29 55 47 60 29 134 97 201 183 33 42 76 80
134 119 77 51 91 65 143 147 54 86 62 94 134 133 99 54 208 125 213 138 4 13
150 100 162 97 4 -2 15 -22 23 -46z m1016 -149 c21 -23 13 -32 -25 -32 -32 0
-49 27 -27 41 21 13 34 11 52 -9z m-134 -6 c18 -22 2 -46 -30 -46 -31 0 -35
10 -19 41 12 22 33 25 49 5z m-1499 -81 c0 -8 -9 -15 -20 -15 -11 0 -20 7 -20
15 0 8 9 15 20 15 11 0 20 -7 20 -15z"/>
<path d="M1975 1640 c-25 -10 -60 -48 -52 -57 7 -7 149 -5 156 3 8 7 -31 43
-58 52 -14 5 -35 6 -46 2z"/>
<path d="M1854 5348 c-43 -45 -74 -87 -74 -100 0 -17 30 -7 41 15 7 12 28 41
46 64 48 58 37 74 -13 21z"/>
<path d="M1677 5183 c-8 -10 -27 -49 -41 -87 -29 -82 -39 -93 -133 -141 -74
-37 -78 -42 -67 -82 11 -41 94 -56 94 -17 0 9 20 36 44 61 48 49 97 132 126
219 11 32 20 59 20 61 0 10 -29 0 -43 -14z"/>
<path d="M2113 2596 c-41 -39 -44 -61 -5 -52 32 8 62 40 62 67 0 27 -20 22
-57 -15z"/>
</g>
</svg>
